<?xml version="1.0" encoding="UTF-8" standalone="no"?>
<svg
   width="800"
   height="800"
   viewBox="0 0 400 400"
   version="1.1"
   id="svg554"
   xmlns:xlink="http://www.w3.org/1999/xlink"
   xmlns="http://www.w3.org/2000/svg"
   xmlns:svg="http://www.w3.org/2000/svg">
  <style
     id="style391">
                :root {
                    font-family: Arial, sans-serif;
                }
                .text-node {
                    font-size: 18px;
                    font-weight: bold;
                    text-anchor: middle;
                    fill: #333;
                }
                .question-mark {
                    font-size: 16px;
                    font-weight: bold;
                    text-anchor: middle;
                    fill: #5514b4;
                }
                .text-circle {
                    fill: white;
                    stroke: #5514b4;
                    stroke-width: 2;
                    rx: 6;
                    ry: 6;
                }
                .question-circle {
                    fill: white;
                    stroke: #5514b4;
                    stroke-width: 1.5;
                    stroke-dasharray: 3,2;
                    rx: 6;
                    ry: 6;
                }
                .arrow {
                    stroke: #5514b4;
                    stroke-width: 1;
                    fill: none;
                    marker-end: url(#arrowhead);
                    opacity: 0.7;
                }
                .unknown-arrow {
                    stroke: #5514b4;
                    stroke-width: 1;
                    stroke-dasharray: 3,2;
                    fill: none;
                    marker-end: url(#arrowhead);
                    opacity: 0.7;
                }
                .outline-box {
                    fill: none;
                    stroke: #333;
                    stroke-width: 2;
                }
            </style>
  <defs
     id="defs396">
    <rect
       x="31.764443"
       y="34.339938"
       width="182.86017"
       height="103.87831"
       id="rect30998" />
    <rect
       x="25.754954"
       y="649.02483"
       width="216.34161"
       height="125.34077"
       id="rect24377" />
    <rect
       x="43.783421"
       y="668.7703"
       width="260.98353"
       height="127.05777"
       id="rect19437" />
    <rect
       x="-80.698855"
       y="-150.23723"
       width="210.33212"
       height="107.31231"
       id="rect11719" />
    <rect
       x="283.16961"
       y="20.170269"
       width="96.274845"
       height="52.836815"
       id="rect26935" />
    <linearGradient
       id="linearGradient11697">
      <stop
         style="stop-color:#3128c9;stop-opacity:0.5;"
         offset="0"
         id="stop11693" />
      <stop
         style="stop-color:#000000;stop-opacity:0;"
         offset="1"
         id="stop11695" />
    </linearGradient>
    <marker
       style="overflow:visible"
       id="marker4060"
       refX="0"
       refY="0"
       orient="auto-start-reverse"
       markerWidth="6.1347523"
       markerHeight="5.9304948"
       viewBox="0 0 6.1347524 5.9304951"
       preserveAspectRatio="xMidYMid">
      <path
         transform="scale(0.7)"
         d="m -0.21114562,-4.1055728 6.42229122,3.21114561 a 1,1 90 0 1 0,1.78885438 L -0.21114562,4.1055728 A 1.236068,1.236068 31.717474 0 1 -2,3 v -6 a 1.236068,1.236068 148.28253 0 1 1.78885438,-1.1055728 z"
         style="fill:context-stroke;fill-rule:evenodd;stroke:none"
         id="path4058" />
    </marker>
    <marker
       style="overflow:visible"
       id="marker3458"
       refX="0"
       refY="0"
       orient="auto-start-reverse"
       markerWidth="6.1347523"
       markerHeight="5.9304953"
       viewBox="0 0 6.1347524 5.9304951"
       preserveAspectRatio="xMidYMid">
      <path
         transform="scale(0.7)"
         d="m -0.21114562,-4.1055728 6.42229122,3.21114561 a 1,1 90 0 1 0,1.78885438 L -0.21114562,4.1055728 A 1.236068,1.236068 31.717474 0 1 -2,3 v -6 a 1.236068,1.236068 148.28253 0 1 1.78885438,-1.1055728 z"
         style="fill:context-stroke;fill-rule:evenodd;stroke:none"
         id="path3456" />
    </marker>
    <marker
       style="overflow:visible"
       id="RoundedArrow"
       refX="0"
       refY="0"
       orient="auto-start-reverse"
       markerWidth="6.1347523"
       markerHeight="5.9304953"
       viewBox="0 0 6.1347524 5.9304951"
       preserveAspectRatio="xMidYMid">
      <path
         transform="scale(0.7)"
         d="m -0.21114562,-4.1055728 6.42229122,3.21114561 a 1,1 90 0 1 0,1.78885438 L -0.21114562,4.1055728 A 1.236068,1.236068 31.717474 0 1 -2,3 v -6 a 1.236068,1.236068 148.28253 0 1 1.78885438,-1.1055728 z"
         style="fill:context-stroke;fill-rule:evenodd;stroke:none"
         id="path1367" />
    </marker>
    <rect
       x="15.717092"
       y="18.336608"
       width="108.97184"
       height="65.487885"
       id="rect1533" />
    <rect
       x="-155.59921"
       y="22.003929"
       width="112.63916"
       height="77.013752"
       id="rect1471" />
    <marker
       id="arrowhead"
       markerWidth="8"
       markerHeight="6"
       refX="7"
       refY="3"
       orient="auto">
      <polygon
         points="0,6 0,0 8,3 "
         fill="#5514b4"
         id="polygon393" />
    </marker>
    <marker
       id="arrowhead-1"
       markerWidth="8"
       markerHeight="6"
       refX="7"
       refY="3"
       orient="auto">
      <polygon
         points="8,3 0,6 0,0 "
         fill="#5514b4"
         id="polygon393-8" />
    </marker>
    <marker
       id="arrowhead-1-7"
       markerWidth="8"
       markerHeight="6"
       refX="7"
       refY="3"
       orient="auto">
      <polygon
         points="0,0 8,3 0,6 "
         fill="#5514b4"
         id="polygon393-8-4" />
    </marker>
    <marker
       id="arrowhead-11"
       markerWidth="8"
       markerHeight="6"
       refX="7"
       refY="3"
       orient="auto">
      <polygon
         points="0,6 0,0 8,3 "
         fill="#5514b4"
         id="polygon393-0" />
    </marker>
    <marker
       id="arrowhead-11-8"
       markerWidth="8"
       markerHeight="6"
       refX="7"
       refY="3"
       orient="auto">
      <polygon
         points="8,3 0,6 0,0 "
         fill="#5514b4"
         id="polygon393-0-7" />
    </marker>
    <rect
       x="15.717092"
       y="18.336609"
       width="108.97184"
       height="65.487885"
       id="rect1533-0" />
    <marker
       id="arrowhead-18"
       markerWidth="8"
       markerHeight="6"
       refX="7"
       refY="3"
       orient="auto">
      <polygon
         points="8,3 0,6 0,0 "
         fill="#5514b4"
         id="polygon393-5" />
    </marker>
    <marker
       style="overflow:visible"
       id="RoundedArrow-9"
       refX="0"
       refY="0"
       orient="auto-start-reverse"
       markerWidth="6.1347523"
       markerHeight="5.9304953"
       viewBox="0 0 6.1347524 5.9304951"
       preserveAspectRatio="xMidYMid">
      <path
         transform="scale(0.7)"
         d="m -0.21114562,-4.1055728 6.42229122,3.21114561 a 1,1 90 0 1 0,1.78885438 L -0.21114562,4.1055728 A 1.236068,1.236068 31.717474 0 1 -2,3 v -6 a 1.236068,1.236068 148.28253 0 1 1.78885438,-1.1055728 z"
         style="fill:context-stroke;fill-rule:evenodd;stroke:none"
         id="path1367-9" />
    </marker>
    <marker
       id="arrowhead-9"
       markerWidth="8"
       markerHeight="6"
       refX="7"
       refY="3"
       orient="auto">
      <polygon
         points="0,6 0,0 8,3 "
         fill="#5514b4"
         id="polygon393-3" />
    </marker>
    <radialGradient
       xlink:href="#linearGradient11697"
       id="radialGradient11699"
       cx="200"
       cy="200"
       fx="200"
       fy="200"
       r="191"
       gradientUnits="userSpaceOnUse" />
  </defs>
  <!-- Outline box -->
  <path
     id="rect398"
     style="fill:url(#radialGradient11699);stroke:#333333;stroke-width:2"
     class="outline-box"
     d="M 10,10 H 390 V 390 H 10 Z" />
  <g
     aria-label="Think of these as the 'parameters'"
     transform="translate(39.920178,291.88948)"
     id="text532-0"
     style="font-weight:bold;font-size:16px;text-anchor:middle;white-space:pre;inline-size:99.244;fill:#5514b4;stroke-width:0.852469"
     class="question-mark">
    <path
       d="m 16.598633,49.939232 v -9.515625 h -3.398438 v -1.9375 h 9.101563 v 1.9375 h -3.390625 v 9.515625 z"
       id="path25050" />
    <path
       d="m 25.96582,38.486107 v 4.210937 q 1.0625,-1.242187 2.539063,-1.242187 0.757812,0 1.367187,0.28125 0.609375,0.28125 0.914063,0.71875 0.3125,0.4375 0.421875,0.96875 0.117187,0.53125 0.117187,1.648437 v 4.867188 h -2.195312 v -4.382813 q 0,-1.304687 -0.125,-1.65625 -0.125,-0.351562 -0.445313,-0.554687 -0.3125,-0.210938 -0.789062,-0.210938 -0.546875,0 -0.976563,0.265625 -0.429687,0.265625 -0.632812,0.804688 -0.195313,0.53125 -0.195313,1.578125 v 4.15625 H 23.770508 V 38.486107 Z"
       id="path25052" />
    <path
       d="m 33.551758,40.517357 v -2.03125 h 2.195312 v 2.03125 z m 0,9.421875 v -8.296875 h 2.195312 v 8.296875 z"
       id="path25054" />
    <path
       d="m 45.543945,49.939232 h -2.195312 v -4.234375 q 0,-1.34375 -0.140625,-1.734375 -0.140625,-0.398438 -0.460938,-0.617188 -0.3125,-0.21875 -0.757812,-0.21875 -0.570313,0 -1.023438,0.3125 -0.453125,0.3125 -0.625,0.828125 -0.164062,0.515625 -0.164062,1.90625 v 3.757813 h -2.195313 v -8.296875 h 2.039063 v 1.21875 q 1.085937,-1.40625 2.734375,-1.40625 0.726562,0 1.328125,0.265625 0.601562,0.257812 0.90625,0.664062 0.3125,0.40625 0.429687,0.921875 0.125,0.515625 0.125,1.476563 z"
       id="path25056" />
    <path
       d="M 47.692383,49.939232 V 38.486107 h 2.195312 v 6.078125 l 2.570313,-2.921875 h 2.703125 l -2.835938,3.03125 3.039063,5.265625 H 52.99707 l -2.085937,-3.726563 -1.023438,1.070313 v 2.65625 z"
       id="path25058" />
    <path
       d="m 60.606445,45.673607 q 0,-1.09375 0.539063,-2.117188 0.539062,-1.023437 1.523437,-1.5625 0.992188,-0.539062 2.210938,-0.539062 1.882812,0 3.085937,1.226562 1.203125,1.21875 1.203125,3.085938 0,1.882812 -1.21875,3.125 -1.210937,1.234375 -3.054687,1.234375 -1.140625,0 -2.179688,-0.515625 -1.03125,-0.515625 -1.570312,-1.507813 -0.539063,-1 -0.539063,-2.429687 z m 2.25,0.117187 q 0,1.234375 0.585938,1.890625 0.585937,0.65625 1.445312,0.65625 0.859375,0 1.4375,-0.65625 0.585938,-0.65625 0.585938,-1.90625 0,-1.21875 -0.585938,-1.875 -0.578125,-0.65625 -1.4375,-0.65625 -0.859375,0 -1.445312,0.65625 -0.585938,0.65625 -0.585938,1.890625 z"
       id="path25060" />
    <path
       d="m 69.926758,41.642357 h 1.21875 v -0.625 q 0,-1.046875 0.21875,-1.5625 0.226562,-0.515625 0.820312,-0.835938 0.601563,-0.328125 1.515625,-0.328125 0.9375,0 1.835938,0.28125 l -0.296875,1.53125 q -0.523438,-0.125 -1.007813,-0.125 -0.476562,0 -0.6875,0.226563 -0.203125,0.21875 -0.203125,0.851562 v 0.585938 h 1.640625 v 1.726562 H 73.34082 v 6.570313 h -2.195312 v -6.570313 h -1.21875 z"
       id="path25062" />
    <path
       d="m 2.6728516,61.642356 v 1.75 h -1.5 v 3.34375 q 0,1.015625 0.039063,1.1875 0.046875,0.164063 0.1953125,0.273438 0.15625,0.109375 0.375,0.109375 0.3046875,0 0.8828125,-0.210938 l 0.1875,1.703125 q -0.765625,0.328125 -1.734375,0.328125 -0.59375004,0 -1.07031254,-0.195312 -0.4765625,-0.203125 -0.703125,-0.515625 -0.21875,-0.320313 -0.3046875,-0.859375 -0.0703125,-0.382813 -0.0703125,-1.546875 v -3.617188 h -1.0078125 v -1.75 h 1.0078125 v -1.648437 l 2.203125,-1.28125 v 2.929687 z"
       id="path25064" />
    <path
       d="m 6.3837891,58.486106 v 4.210938 q 1.0625,-1.242188 2.5390625,-1.242188 0.7578125,0 1.3671874,0.28125 0.609375,0.28125 0.914063,0.71875 0.3125,0.4375 0.421875,0.96875 0.117187,0.53125 0.117187,1.648438 v 4.867187 H 9.5478516 v -4.382812 q 0,-1.304688 -0.125,-1.65625 -0.125,-0.351563 -0.4453125,-0.554688 -0.3125,-0.210937 -0.7890625,-0.210937 -0.546875,0 -0.9765625,0.265625 -0.4296875,0.265625 -0.6328125,0.804687 -0.1953125,0.53125 -0.1953125,1.578125 v 4.15625 H 4.1884766 V 58.486106 Z"
       id="path25066" />
    <path
       d="m 18.774414,67.298606 2.1875,0.367188 q -0.421875,1.203125 -1.335937,1.835937 -0.90625,0.625 -2.273438,0.625 -2.164062,0 -3.203125,-1.414062 -0.820312,-1.132813 -0.820312,-2.859375 0,-2.0625 1.078125,-3.226563 1.078125,-1.171875 2.726562,-1.171875 1.851563,0 2.921875,1.226563 1.070313,1.21875 1.023438,3.742187 h -5.5 q 0.02344,0.976563 0.53125,1.523438 0.507812,0.539062 1.265625,0.539062 0.515625,0 0.867187,-0.28125 0.351563,-0.28125 0.53125,-0.90625 z m 0.125,-2.21875 q -0.02344,-0.953125 -0.492187,-1.445312 -0.46875,-0.5 -1.140625,-0.5 -0.71875,0 -1.1875,0.523437 -0.46875,0.523438 -0.460938,1.421875 z"
       id="path25068" />
    <path
       d="m 22.094727,67.572044 2.203125,-0.335938 q 0.140625,0.640625 0.570312,0.976563 0.429688,0.328125 1.203125,0.328125 0.851563,0 1.28125,-0.3125 0.289063,-0.21875 0.289063,-0.585938 0,-0.25 -0.15625,-0.414062 -0.164063,-0.15625 -0.734375,-0.289063 -2.65625,-0.585937 -3.367188,-1.070312 -0.984375,-0.671875 -0.984375,-1.867188 0,-1.078125 0.851563,-1.8125 0.851562,-0.734375 2.640625,-0.734375 1.703125,0 2.53125,0.554688 0.828125,0.554687 1.140625,1.640625 l -2.070313,0.382812 q -0.132812,-0.484375 -0.507812,-0.742187 -0.367188,-0.257813 -1.054688,-0.257813 -0.867187,0 -1.242187,0.242188 -0.25,0.171875 -0.25,0.445312 0,0.234375 0.21875,0.398438 0.296875,0.21875 2.046875,0.617187 1.757812,0.398438 2.453125,0.976563 0.6875,0.585937 0.6875,1.632812 0,1.140625 -0.953125,1.960938 -0.953125,0.820312 -2.820313,0.820312 -1.695312,0 -2.6875,-0.6875 -0.984375,-0.6875 -1.289062,-1.867187 z"
       id="path25070" />
    <path
       d="m 36.571289,67.298606 2.1875,0.367188 q -0.421875,1.203125 -1.335937,1.835937 -0.90625,0.625 -2.273438,0.625 -2.164062,0 -3.203125,-1.414062 -0.820312,-1.132813 -0.820312,-2.859375 0,-2.0625 1.078125,-3.226563 1.078125,-1.171875 2.726562,-1.171875 1.851563,0 2.921875,1.226563 1.070313,1.21875 1.023438,3.742187 h -5.5 q 0.02344,0.976563 0.53125,1.523438 0.507812,0.539062 1.265625,0.539062 0.515625,0 0.867187,-0.28125 0.351563,-0.28125 0.53125,-0.90625 z m 0.125,-2.21875 q -0.02344,-0.953125 -0.492187,-1.445312 -0.46875,-0.5 -1.140625,-0.5 -0.71875,0 -1.1875,0.523437 -0.46875,0.523438 -0.460938,1.421875 z"
       id="path25072" />
    <path
       d="m 46.750977,64.173606 -1.992188,-0.359375 q 0.335938,-1.203125 1.15625,-1.78125 0.820313,-0.578125 2.4375,-0.578125 1.46875,0 2.1875,0.351563 0.71875,0.34375 1.007813,0.882812 0.296875,0.53125 0.296875,1.960938 l -0.02344,2.5625 q 0,1.09375 0.101563,1.617187 0.109375,0.515625 0.398437,1.109375 h -2.171875 q -0.08594,-0.21875 -0.210937,-0.648437 -0.05469,-0.195313 -0.07813,-0.257813 -0.5625,0.546875 -1.203125,0.820313 -0.640625,0.273437 -1.367188,0.273437 -1.28125,0 -2.023437,-0.695312 -0.734375,-0.695313 -0.734375,-1.757813 0,-0.703125 0.335937,-1.25 0.335938,-0.554687 0.9375,-0.84375 0.609375,-0.296875 1.75,-0.515625 1.539063,-0.289062 2.132813,-0.539062 v -0.21875 q 0,-0.632813 -0.3125,-0.898438 -0.3125,-0.273437 -1.179688,-0.273437 -0.585937,0 -0.914062,0.234375 -0.328125,0.226562 -0.53125,0.804687 z m 2.9375,1.78125 q -0.421875,0.140625 -1.335938,0.335938 -0.914062,0.195312 -1.195312,0.382812 -0.429688,0.304688 -0.429688,0.773438 0,0.460937 0.34375,0.796875 0.34375,0.335937 0.875,0.335937 0.59375,0 1.132813,-0.390625 0.398437,-0.296875 0.523437,-0.726562 0.08594,-0.28125 0.08594,-1.070313 z"
       id="path25074" />
    <path
       d="m 53.235352,67.572044 2.203125,-0.335938 q 0.140625,0.640625 0.570312,0.976563 0.429688,0.328125 1.203125,0.328125 0.851563,0 1.28125,-0.3125 0.289063,-0.21875 0.289063,-0.585938 0,-0.25 -0.15625,-0.414062 -0.164063,-0.15625 -0.734375,-0.289063 -2.65625,-0.585937 -3.367188,-1.070312 -0.984375,-0.671875 -0.984375,-1.867188 0,-1.078125 0.851563,-1.8125 0.851562,-0.734375 2.640625,-0.734375 1.703125,0 2.53125,0.554688 0.828125,0.554687 1.140625,1.640625 l -2.070313,0.382812 q -0.132812,-0.484375 -0.507812,-0.742187 -0.367188,-0.257813 -1.054688,-0.257813 -0.867187,0 -1.242187,0.242188 -0.25,0.171875 -0.25,0.445312 0,0.234375 0.21875,0.398438 0.296875,0.21875 2.046875,0.617187 1.757812,0.398438 2.453125,0.976563 0.6875,0.585937 0.6875,1.632812 0,1.140625 -0.953125,1.960938 -0.953125,0.820312 -2.820313,0.820312 -1.695312,0 -2.6875,-0.6875 -0.984375,-0.6875 -1.289062,-1.867187 z"
       id="path25076" />
    <path
       d="m 71.157227,61.642356 v 1.75 h -1.5 v 3.34375 q 0,1.015625 0.03906,1.1875 0.04687,0.164063 0.195313,0.273438 0.15625,0.109375 0.375,0.109375 0.304687,0 0.882812,-0.210938 l 0.1875,1.703125 q -0.765625,0.328125 -1.734375,0.328125 -0.59375,0 -1.070312,-0.195312 -0.476563,-0.203125 -0.703125,-0.515625 -0.21875,-0.320313 -0.304688,-0.859375 -0.07031,-0.382813 -0.07031,-1.546875 v -3.617188 h -1.007813 v -1.75 h 1.007813 v -1.648437 l 2.203125,-1.28125 v 2.929687 z"
       id="path25078" />
    <path
       d="m 74.868164,58.486106 v 4.210938 q 1.0625,-1.242188 2.539063,-1.242188 0.757812,0 1.367187,0.28125 0.609375,0.28125 0.914063,0.71875 0.3125,0.4375 0.421875,0.96875 0.117187,0.53125 0.117187,1.648438 v 4.867187 h -2.195312 v -4.382812 q 0,-1.304688 -0.125,-1.65625 -0.125,-0.351563 -0.445313,-0.554688 -0.3125,-0.210937 -0.789062,-0.210937 -0.546875,0 -0.976563,0.265625 -0.429687,0.265625 -0.632812,0.804687 -0.195313,0.53125 -0.195313,1.578125 v 4.15625 H 72.672852 V 58.486106 Z"
       id="path25080" />
    <path
       d="m 87.258789,67.298606 2.1875,0.367188 q -0.421875,1.203125 -1.335937,1.835937 -0.90625,0.625 -2.273438,0.625 -2.164062,0 -3.203125,-1.414062 -0.820312,-1.132813 -0.820312,-2.859375 0,-2.0625 1.078125,-3.226563 1.078125,-1.171875 2.726562,-1.171875 1.851563,0 2.921875,1.226563 1.070313,1.21875 1.023438,3.742187 h -5.5 q 0.02344,0.976563 0.53125,1.523438 0.507812,0.539062 1.265625,0.539062 0.515625,0 0.867187,-0.28125 0.351563,-0.28125 0.53125,-0.90625 z m 0.125,-2.21875 q -0.02344,-0.953125 -0.492187,-1.445312 -0.46875,-0.5 -1.140625,-0.5 -0.71875,0 -1.1875,0.523437 -0.46875,0.523438 -0.460938,1.421875 z"
       id="path25082" />
    <path
       d="m -1.8466797,82.556419 -0.4140625,-2.132813 v -1.9375 h 2.39062501 v 1.9375 l -0.359375,2.132813 z"
       id="path25084" />
    <path
       d="m 1.9111328,81.642356 h 2.046875 v 1.21875 q 0.3984375,-0.625 1.078125,-1.015625 0.6796875,-0.390625 1.5078125,-0.390625 1.4453125,0 2.453125,1.132813 1.0078127,1.132812 1.0078127,3.15625 0,2.078125 -1.0156252,3.234375 -1.015625,1.148437 -2.4609375,1.148437 -0.6875,0 -1.25,-0.273437 -0.5546875,-0.273438 -1.171875,-0.9375 v 4.179687 H 1.9111328 Z m 2.171875,4.007813 q 0,1.398437 0.5546875,2.070312 0.5546875,0.664063 1.3515625,0.664063 0.765625,0 1.2734375,-0.609375 0.5078125,-0.617188 0.5078125,-2.015625 0,-1.304688 -0.5234375,-1.9375 -0.5234375,-0.632813 -1.296875,-0.632813 -0.8046875,0 -1.3359375,0.625 -0.53125,0.617188 -0.53125,1.835938 z"
       id="path25086" />
    <path
       d="m 13.387695,84.173606 -1.992187,-0.359375 q 0.335937,-1.203125 1.15625,-1.78125 0.820312,-0.578125 2.4375,-0.578125 1.46875,0 2.1875,0.351563 0.71875,0.34375 1.007812,0.882812 0.296875,0.53125 0.296875,1.960938 l -0.02344,2.5625 q 0,1.09375 0.101562,1.617187 0.109375,0.515625 0.398438,1.109375 H 16.78613 q -0.08594,-0.21875 -0.210938,-0.648437 -0.05469,-0.195313 -0.07813,-0.257813 -0.5625,0.546875 -1.203125,0.820313 -0.640625,0.273437 -1.367187,0.273437 -1.28125,0 -2.023438,-0.695312 -0.734375,-0.695313 -0.734375,-1.757813 0,-0.703125 0.335938,-1.25 0.335937,-0.554687 0.9375,-0.84375 0.609375,-0.296875 1.75,-0.515625 1.539062,-0.289062 2.132812,-0.539062 v -0.21875 q 0,-0.632813 -0.3125,-0.898438 -0.3125,-0.273437 -1.179687,-0.273437 -0.585938,0 -0.914063,0.234375 -0.328125,0.226562 -0.53125,0.804687 z m 2.9375,1.78125 q -0.421875,0.140625 -1.335937,0.335938 -0.914063,0.195312 -1.195313,0.382812 -0.429687,0.304688 -0.429687,0.773438 0,0.460937 0.34375,0.796875 0.34375,0.335937 0.875,0.335937 0.59375,0 1.132812,-0.390625 0.398438,-0.296875 0.523438,-0.726562 0.08594,-0.28125 0.08594,-1.070313 z"
       id="path25088" />
    <path
       d="m 22.74707,89.939231 h -2.195312 v -8.296875 h 2.039062 v 1.179688 q 0.523438,-0.835938 0.9375,-1.101563 0.421875,-0.265625 0.953125,-0.265625 0.75,0 1.445313,0.414063 l -0.679688,1.914062 q -0.554687,-0.359375 -1.03125,-0.359375 -0.460937,0 -0.78125,0.257813 -0.320312,0.25 -0.507812,0.914062 -0.179688,0.664063 -0.179688,2.78125 z"
       id="path25090" />
    <path
       d="m 28.512695,84.173606 -1.992187,-0.359375 q 0.335937,-1.203125 1.15625,-1.78125 0.820312,-0.578125 2.4375,-0.578125 1.46875,0 2.1875,0.351563 0.71875,0.34375 1.007812,0.882812 0.296875,0.53125 0.296875,1.960938 l -0.02344,2.5625 q 0,1.09375 0.101562,1.617187 0.109375,0.515625 0.398438,1.109375 H 31.91113 q -0.08594,-0.21875 -0.210938,-0.648437 -0.05469,-0.195313 -0.07813,-0.257813 -0.5625,0.546875 -1.203125,0.820313 -0.640625,0.273437 -1.367187,0.273437 -1.28125,0 -2.023438,-0.695312 -0.734375,-0.695313 -0.734375,-1.757813 0,-0.703125 0.335938,-1.25 0.335937,-0.554687 0.9375,-0.84375 0.609375,-0.296875 1.75,-0.515625 1.539062,-0.289062 2.132812,-0.539062 v -0.21875 q 0,-0.632813 -0.3125,-0.898438 -0.3125,-0.273437 -1.179687,-0.273437 -0.585938,0 -0.914063,0.234375 -0.328125,0.226562 -0.53125,0.804687 z m 2.9375,1.78125 q -0.421875,0.140625 -1.335937,0.335938 -0.914063,0.195312 -1.195313,0.382812 -0.429687,0.304688 -0.429687,0.773438 0,0.460937 0.34375,0.796875 0.34375,0.335937 0.875,0.335937 0.59375,0 1.132812,-0.390625 0.398438,-0.296875 0.523438,-0.726562 0.08594,-0.28125 0.08594,-1.070313 z"
       id="path25092" />
    <path
       d="m 35.606445,81.642356 h 2.023438 v 1.132813 q 1.085937,-1.320313 2.585937,-1.320313 0.796875,0 1.382813,0.328125 0.585937,0.328125 0.960937,0.992188 0.546875,-0.664063 1.179688,-0.992188 0.632812,-0.328125 1.351562,-0.328125 0.914063,0 1.546875,0.375 0.632813,0.367188 0.945313,1.085938 0.226562,0.53125 0.226562,1.71875 v 5.304687 h -2.195312 v -4.742187 q 0,-1.234375 -0.226563,-1.59375 -0.304687,-0.46875 -0.9375,-0.46875 -0.460937,0 -0.867187,0.28125 -0.40625,0.28125 -0.585938,0.828125 -0.179687,0.539062 -0.179687,1.710937 v 3.984375 H 40.62207 v -4.546875 q 0,-1.210937 -0.117187,-1.5625 -0.117188,-0.351562 -0.367188,-0.523437 -0.242187,-0.171875 -0.664062,-0.171875 -0.507813,0 -0.914063,0.273437 -0.40625,0.273438 -0.585937,0.789063 -0.171875,0.515625 -0.171875,1.710937 v 4.03125 h -2.195313 z"
       id="path25094" />
    <path
       d="m 54.801758,87.298606 2.1875,0.367188 q -0.421875,1.203125 -1.335938,1.835937 -0.90625,0.625 -2.273437,0.625 -2.164063,0 -3.203125,-1.414062 -0.820313,-1.132813 -0.820313,-2.859375 0,-2.0625 1.078125,-3.226563 1.078125,-1.171875 2.726563,-1.171875 1.851562,0 2.921875,1.226563 1.070312,1.21875 1.023437,3.742187 h -5.5 q 0.02344,0.976563 0.53125,1.523438 0.507813,0.539062 1.265625,0.539062 0.515625,0 0.867188,-0.28125 0.351562,-0.28125 0.53125,-0.90625 z m 0.125,-2.21875 q -0.02344,-0.953125 -0.492188,-1.445312 -0.46875,-0.5 -1.140625,-0.5 -0.71875,0 -1.1875,0.523437 -0.46875,0.523438 -0.460937,1.421875 z"
       id="path25096" />
    <path
       d="m 62.700195,81.642356 v 1.75 h -1.5 v 3.34375 q 0,1.015625 0.03906,1.1875 0.04687,0.164063 0.195312,0.273438 0.15625,0.109375 0.375,0.109375 0.304688,0 0.882813,-0.210938 l 0.1875,1.703125 q -0.765625,0.328125 -1.734375,0.328125 -0.59375,0 -1.070313,-0.195312 -0.476562,-0.203125 -0.703125,-0.515625 -0.21875,-0.320313 -0.304687,-0.859375 -0.07031,-0.382813 -0.07031,-1.546875 v -3.617188 h -1.007812 v -1.75 h 1.007812 v -1.648437 l 2.203125,-1.28125 v 2.929687 z"
       id="path25098" />
    <path
       d="m 69.02832,87.298606 2.1875,0.367188 q -0.421875,1.203125 -1.335937,1.835937 -0.90625,0.625 -2.273438,0.625 -2.164062,0 -3.203125,-1.414062 -0.820312,-1.132813 -0.820312,-2.859375 0,-2.0625 1.078125,-3.226563 1.078125,-1.171875 2.726562,-1.171875 1.851563,0 2.921875,1.226563 1.070313,1.21875 1.023438,3.742187 h -5.5 q 0.02344,0.976563 0.53125,1.523438 0.507812,0.539062 1.265625,0.539062 0.515625,0 0.867187,-0.28125 0.351563,-0.28125 0.53125,-0.90625 z m 0.125,-2.21875 q -0.02344,-0.953125 -0.492187,-1.445312 -0.46875,-0.5 -1.140625,-0.5 -0.71875,0 -1.1875,0.523437 -0.46875,0.523438 -0.460938,1.421875 z"
       id="path25100" />
    <path
       d="M 75.223633,89.939231 H 73.02832 v -8.296875 h 2.039063 v 1.179688 q 0.523437,-0.835938 0.9375,-1.101563 0.421875,-0.265625 0.953125,-0.265625 0.75,0 1.445312,0.414063 l -0.679687,1.914062 q -0.554688,-0.359375 -1.03125,-0.359375 -0.460938,0 -0.78125,0.257813 -0.320313,0.25 -0.507813,0.914062 -0.179687,0.664063 -0.179687,2.78125 z"
       id="path25102" />
    <path
       d="m 78.575195,87.572044 2.203125,-0.335938 q 0.140625,0.640625 0.570313,0.976563 0.429687,0.328125 1.203125,0.328125 0.851562,0 1.28125,-0.3125 0.289062,-0.21875 0.289062,-0.585938 0,-0.25 -0.15625,-0.414062 -0.164062,-0.15625 -0.734375,-0.289063 -2.65625,-0.585937 -3.367187,-1.070312 -0.984375,-0.671875 -0.984375,-1.867188 0,-1.078125 0.851562,-1.8125 0.851563,-0.734375 2.640625,-0.734375 1.703125,0 2.53125,0.554688 0.828125,0.554687 1.140625,1.640625 l -2.070312,0.382812 q -0.132813,-0.484375 -0.507813,-0.742187 -0.367187,-0.257813 -1.054687,-0.257813 -0.867188,0 -1.242188,0.242188 -0.25,0.171875 -0.25,0.445312 0,0.234375 0.21875,0.398438 0.296875,0.21875 2.046875,0.617187 1.757813,0.398438 2.453125,0.976563 0.6875,0.585937 0.6875,1.632812 0,1.140625 -0.953125,1.960938 -0.953125,0.820312 -2.820312,0.820312 -1.695313,0 -2.6875,-0.6875 -0.984375,-0.6875 -1.289063,-1.867187 z"
       id="path25104" />
    <path
       d="m 88.231445,82.556419 -0.414062,-2.132813 v -1.9375 h 2.390625 v 1.9375 l -0.359375,2.132813 z"
       id="path25106" />
  </g>
  <!-- Text node backgrounds -->
  <path
     id="circle400"
     class="text-circle"
     style="fill:#ffffff;stroke:#5514b4;stroke-width:2"
     d="M 221.3117,72.128792 A 21.311718,21.311718 0 0 1 199.99998,93.44051 21.311718,21.311718 0 0 1 178.68827,72.128792 21.311718,21.311718 0 0 1 199.99998,50.817074 21.311718,21.311718 0 0 1 221.3117,72.128792 Z" />
  <path
     id="circle402"
     class="text-circle"
     style="fill:#ffffff;stroke:#5514b4;stroke-width:2"
     d="m 323.60795,131.80161 a 21.311718,21.311718 0 0 1 -21.31172,21.31171 21.311718,21.311718 0 0 1 -21.31171,-21.31171 21.311718,21.311718 0 0 1 21.31171,-21.31172 21.311718,21.311718 0 0 1 21.31172,21.31172 z" />
  <path
     id="circle404"
     class="text-circle"
     style="fill:#ffffff;stroke:#5514b4;stroke-width:2"
     d="m 323.60795,268.19659 a 21.311718,21.311718 0 0 1 -21.31172,21.31172 21.311718,21.311718 0 0 1 -21.31171,-21.31172 21.311718,21.311718 0 0 1 21.31171,-21.31171 21.311718,21.311718 0 0 1 21.31172,21.31171 z" />
  <path
     id="circle406"
     class="text-circle"
     style="fill:#ffffff;stroke:#5514b4;stroke-width:2"
     d="m 221.3117,327.86942 a 21.311718,21.311718 0 0 1 -21.31172,21.31171 21.311718,21.311718 0 0 1 -21.31171,-21.31171 21.311718,21.311718 0 0 1 21.31171,-21.31172 21.311718,21.311718 0 0 1 21.31172,21.31172 z" />
  <path
     id="circle408"
     class="text-circle"
     style="fill:#ffffff;stroke:#5514b4;stroke-width:2"
     d="M 119.01546,268.19659 A 21.311718,21.311718 0 0 1 97.703743,289.50831 21.311718,21.311718 0 0 1 76.392025,268.19659 21.311718,21.311718 0 0 1 97.703743,246.88488 21.311718,21.311718 0 0 1 119.01546,268.19659 Z" />
  <path
     id="circle410"
     class="text-circle"
     style="fill:#ffffff;stroke:#5514b4;stroke-width:2"
     d="M 119.01546,131.80161 A 21.311718,21.311718 0 0 1 97.703743,153.11332 21.311718,21.311718 0 0 1 76.392025,131.80161 21.311718,21.311718 0 0 1 97.703743,110.48989 21.311718,21.311718 0 0 1 119.01546,131.80161 Z" />
  <path
     id="ellipse412"
     class="text-circle"
     style="fill:#ffffff;stroke:#5514b4;stroke-width:2"
     d="m 242.62342,199.9991 a 42.623436,21.311718 0 0 1 -42.62344,21.31172 42.623436,21.311718 0 0 1 -42.62343,-21.31172 42.623436,21.311718 0 0 1 42.62343,-21.31172 42.623436,21.311718 0 0 1 42.62344,21.31172 z" />
  <!-- Text nodes -->
  <g
     aria-label="2"
     id="text414"
     style="font-weight:bold;font-size:18px;text-anchor:middle;fill:#333333;stroke-width:0.852469"
     class="text-node">
    <path
       d="m 204.10008,75.802124 v 2.293945 h -8.65722 q 0.14062,-1.300781 0.84375,-2.460937 0.70312,-1.168945 2.77734,-3.09375 1.66992,-1.555664 2.04785,-2.109375 0.50977,-0.764649 0.50977,-1.511719 0,-0.826172 -0.44825,-1.265625 -0.43945,-0.448242 -1.22168,-0.448242 -0.77343,0 -1.23046,0.46582 -0.45704,0.465821 -0.52735,1.546875 l -2.46094,-0.246094 q 0.21973,-2.039062 1.37989,-2.926757 1.16015,-0.887696 2.90039,-0.887696 1.90722,0 2.99707,1.028321 1.08984,1.02832 1.08984,2.557617 0,0.870117 -0.3164,1.661133 -0.30762,0.782226 -0.98438,1.643554 -0.44824,0.571289 -1.61719,1.643555 -1.16894,1.072266 -1.48535,1.423828 -0.30762,0.351563 -0.50097,0.685547 z"
       id="path26283" />
  </g>
  <g
     aria-label="4"
     id="text416"
     style="font-weight:bold;font-size:18px;text-anchor:middle;fill:#333333;stroke-width:0.852469"
     class="text-node">
    <path
       d="m 302.89828,137.76888 v -2.59278 h -5.27343 v -2.16211 l 5.58984,-8.18261 h 2.07422 v 8.17382 h 1.59961 v 2.1709 h -1.59961 v 2.59278 z m 0,-4.76368 v -4.40332 l -2.96191,4.40332 z"
       id="path26280" />
  </g>
  <g
     aria-label="6"
     id="text418"
     style="font-weight:bold;font-size:18px;text-anchor:middle;fill:#333333;stroke-width:0.852469"
     class="text-node">
    <path
       d="m 306.4227,264.43439 -2.39063,0.26367 q -0.0879,-0.73828 -0.45703,-1.08984 -0.36914,-0.35157 -0.95801,-0.35157 -0.78222,0 -1.32714,0.70313 -0.53614,0.70312 -0.67676,2.92676 0.92285,-1.08985 2.29394,-1.08985 1.54688,0 2.64551,1.17774 1.10742,1.17773 1.10742,3.04101 0,1.97754 -1.16015,3.17285 -1.16016,1.19532 -2.97949,1.19532 -1.95118,0 -3.20801,-1.51172 -1.25684,-1.52051 -1.25684,-4.97461 0,-3.54199 1.30957,-5.10645 1.30957,-1.56445 3.40137,-1.56445 1.46777,0 2.42578,0.82617 0.9668,0.81738 1.23047,2.38184 z m -5.59863,5.38769 q 0,1.2041 0.55371,1.86328 0.55371,0.65039 1.26562,0.65039 0.68555,0 1.14258,-0.53613 0.45703,-0.53613 0.45703,-1.75781 0,-1.25684 -0.49219,-1.83691 -0.49218,-0.58887 -1.23046,-0.58887 -0.71192,0 -1.20411,0.5625 -0.49218,0.55371 -0.49218,1.64355 z"
       id="path26277" />
  </g>
  <g
     aria-label="8"
     id="text420"
     style="font-weight:bold;font-size:18px;text-anchor:middle;fill:#333333;stroke-width:0.852469"
     class="text-node">
    <path
       d="m 197.87743,326.88452 q -0.95801,-0.4043 -1.39746,-1.10742 -0.43067,-0.71191 -0.43067,-1.55566 0,-1.44141 1.00195,-2.38184 1.01075,-0.94043 2.86524,-0.94043 1.83691,0 2.84765,0.94043 1.01954,0.94043 1.01954,2.38184 0,0.89648 -0.46582,1.5996 -0.46582,0.69434 -1.30957,1.06348 1.07226,0.43067 1.62597,1.25684 0.5625,0.82617 0.5625,1.90722 0,1.78418 -1.14258,2.90039 -1.13379,1.11622 -3.02343,1.11622 -1.75782,0 -2.92676,-0.92286 -1.37988,-1.08984 -1.37988,-2.98828 0,-1.0459 0.51855,-1.91601 0.51856,-0.87891 1.63477,-1.35352 z m 0.50976,-2.4873 q 0,0.73828 0.41309,1.15136 0.42187,0.41309 1.11621,0.41309 0.70312,0 1.125,-0.41309 0.42187,-0.42187 0.42187,-1.16015 0,-0.69434 -0.42187,-1.10742 -0.41309,-0.42188 -1.09863,-0.42188 -0.71192,0 -1.13379,0.42188 -0.42188,0.42187 -0.42188,1.11621 z m -0.22851,5.51953 q 0,1.01953 0.51855,1.59082 0.52734,0.57129 1.30957,0.57129 0.76465,0 1.26563,-0.54492 0.50097,-0.55372 0.50097,-1.59082 0,-0.90528 -0.50976,-1.4502 -0.50977,-0.55371 -1.292,-0.55371 -0.90527,0 -1.35351,0.62402 -0.43945,0.62403 -0.43945,1.35352 z"
       id="path26274" />
  </g>
  <g
     aria-label="10"
     id="text422"
     style="font-weight:bold;font-size:18px;text-anchor:middle;fill:#333333;stroke-width:0.852469"
     class="text-node">
    <path
       d="m 94.776985,274.16388 h -2.469726 v -9.30762 q -1.353516,1.26563 -3.19043,1.87207 v -2.24121 q 0.966797,-0.3164 2.100586,-1.19531 1.133789,-0.8877 1.555664,-2.06543 h 2.003906 z"
       id="path26269" />
    <path
       d="m 102.6432,261.22638 q 1.87207,0 2.92675,1.33594 1.25684,1.58203 1.25684,5.24707 0,3.65625 -1.26563,5.25586 -1.04589,1.31836 -2.91796,1.31836 -1.88086,0 -3.03223,-1.44141 -1.151368,-1.4502 -1.151368,-5.15918 0,-3.63867 1.265625,-5.23828 1.045903,-1.31836 2.917973,-1.31836 z m 0,2.04785 q -0.44825,0 -0.79981,0.29004 -0.35156,0.28125 -0.54492,1.01953 -0.25488,0.95801 -0.25488,3.22559 0,2.26758 0.22851,3.12011 0.22852,0.84375 0.57129,1.125 0.35156,0.28125 0.79981,0.28125 0.44824,0 0.7998,-0.28125 0.35156,-0.29003 0.54492,-1.02832 0.25489,-0.94921 0.25489,-3.21679 0,-2.26758 -0.22852,-3.11133 -0.22852,-0.85254 -0.58008,-1.13379 -0.34277,-0.29004 -0.79101,-0.29004 z"
       id="path26271" />
  </g>
  <g
     aria-label="Who"
     id="text424"
     style="font-weight:bold;font-size:18px;text-anchor:middle;fill:#333333;stroke-width:0.852469"
     class="text-node">
    <path
       d="M 81.351692,137.76888 78.27552,124.88411 h 2.663086 l 1.942383,8.85059 2.355469,-8.85059 h 3.09375 l 2.258789,9 1.977539,-9 h 2.619141 l -3.128907,12.88477 h -2.759765 l -2.566407,-9.63282 -2.557617,9.63282 z"
       id="path26262" />
    <path
       d="m 98.956184,124.88411 v 4.7373 q 1.195316,-1.39746 2.856446,-1.39746 0.85254,0 1.53809,0.31641 0.68554,0.31641 1.02832,0.80859 0.35156,0.49219 0.47461,1.08985 0.13183,0.59765 0.13183,1.85449 v 5.47559 h -2.46973 v -4.93067 q 0,-1.46777 -0.14062,-1.86328 -0.14063,-0.39551 -0.50098,-0.62402 -0.35156,-0.23731 -0.88769,-0.23731 -0.61524,0 -1.098635,0.29883 -0.483398,0.29883 -0.711914,0.90527 -0.219727,0.59766 -0.219727,1.77539 v 4.67579 h -2.469726 v -12.88477 z"
       id="path26264" />
    <path
       d="m 106.91908,132.97005 q 0,-1.23047 0.60644,-2.38184 0.60645,-1.15137 1.71387,-1.75781 1.11621,-0.60645 2.4873,-0.60645 2.11817,0 3.47168,1.37989 1.35352,1.37109 1.35352,3.47168 0,2.11816 -1.3711,3.51562 -1.3623,1.38867 -3.43652,1.38867 -1.2832,0 -2.45215,-0.58008 -1.16015,-0.58007 -1.7666,-1.69628 -0.60644,-1.125 -0.60644,-2.7334 z m 2.53125,0.13183 q 0,1.38867 0.65917,2.12696 0.65918,0.73828 1.62598,0.73828 0.9668,0 1.61719,-0.73828 0.65918,-0.73829 0.65918,-2.14454 0,-1.37109 -0.65918,-2.10937 -0.65039,-0.73828 -1.61719,-0.73828 -0.9668,0 -1.62598,0.73828 -0.65917,0.73828 -0.65917,2.12695 z"
       id="path26266" />
  </g>
  <g
     aria-label="Motorway"
     transform="matrix(0.63203229,0,0,0.6571674,64.871169,71.077241)"
     id="text426"
     style="font-weight:bold;font-size:18px;text-anchor:middle;fill:#333333;stroke-width:0.0101865"
     class="text-node">
    <path
       d="m 174.81789,200.61099 v -12.88476 h 3.89355 l 2.33789,8.78906 2.31153,-8.78906 h 3.90234 v 12.88476 h -2.41699 v -10.14258 l -2.55762,10.14258 h -2.50488 l -2.54883,-10.14258 v 10.14258 z"
       id="path1246" />
    <path
       d="m 189.25832,195.81216 q 0,-1.23046 0.60644,-2.38183 0.60645,-1.15137 1.71387,-1.75781 1.11621,-0.60645 2.4873,-0.60645 2.11817,0 3.47168,1.37988 1.35352,1.3711 1.35352,3.47168 0,2.11817 -1.3711,3.51563 -1.3623,1.38867 -3.43652,1.38867 -1.2832,0 -2.45215,-0.58008 -1.16015,-0.58008 -1.7666,-1.69629 -0.60644,-1.125 -0.60644,-2.7334 z m 2.53125,0.13184 q 0,1.38867 0.65918,2.12695 0.65918,0.73828 1.62597,0.73828 0.9668,0 1.61719,-0.73828 0.65918,-0.73828 0.65918,-2.14453 0,-1.37109 -0.65918,-2.10937 -0.65039,-0.73828 -1.61719,-0.73828 -0.96679,0 -1.62597,0.73828 -0.65918,0.73828 -0.65918,2.12695 z"
       id="path1248" />
    <path
       d="m 205.105,191.27701 v 1.96875 h -1.6875 v 3.76172 q 0,1.14257 0.0439,1.33593 0.0527,0.18457 0.21973,0.30762 0.17578,0.12305 0.42187,0.12305 0.34278,0 0.99317,-0.23731 l 0.21093,1.91602 q -0.86132,0.36914 -1.95117,0.36914 -0.66797,0 -1.2041,-0.21973 -0.53613,-0.22851 -0.79101,-0.58007 -0.2461,-0.36036 -0.34278,-0.9668 -0.0791,-0.43067 -0.0791,-1.74024 v -4.06933 h -1.13379 v -1.96875 h 1.13379 v -1.85449 l 2.47852,-1.44141 v 3.2959 z"
       id="path1250" />
    <path
       d="m 206.24757,195.81216 q 0,-1.23046 0.60645,-2.38183 0.60644,-1.15137 1.71387,-1.75781 1.11621,-0.60645 2.4873,-0.60645 2.11817,0 3.47168,1.37988 1.35352,1.3711 1.35352,3.47168 0,2.11817 -1.3711,3.51563 -1.3623,1.38867 -3.43652,1.38867 -1.2832,0 -2.45215,-0.58008 -1.16016,-0.58008 -1.7666,-1.69629 -0.60645,-1.125 -0.60645,-2.7334 z m 2.53125,0.13184 q 0,1.38867 0.65918,2.12695 0.65918,0.73828 1.62598,0.73828 0.9668,0 1.61719,-0.73828 0.65918,-0.73828 0.65918,-2.14453 0,-1.37109 -0.65918,-2.10937 -0.65039,-0.73828 -1.61719,-0.73828 -0.9668,0 -1.62598,0.73828 -0.65918,0.73828 -0.65918,2.12695 z"
       id="path1252" />
    <path
       d="m 220.17824,200.61099 h -2.46973 v -9.33398 h 2.29395 v 1.32715 q 0.58886,-0.94043 1.05468,-1.23926 0.47461,-0.29883 1.07227,-0.29883 0.84375,0 1.62598,0.46582 l -0.76465,2.15332 q -0.62403,-0.4043 -1.16016,-0.4043 -0.51855,0 -0.8789,0.29004 -0.36036,0.28125 -0.57129,1.02832 -0.20215,0.74707 -0.20215,3.12891 z"
       id="path1254" />
    <path
       d="m 226.5591,200.61099 -2.95313,-9.33398 h 2.39942 l 1.74902,6.11719 1.6084,-6.11719 h 2.38183 l 1.55567,6.11719 1.78418,-6.11719 h 2.43457 l -2.99707,9.33398 h -2.37305 l -1.6084,-6.00293 -1.58203,6.00293 z"
       id="path1256" />
    <path
       d="m 240.66554,194.12466 -2.24121,-0.40429 q 0.37793,-1.35352 1.30078,-2.00391 0.92285,-0.65039 2.74219,-0.65039 1.65234,0 2.46094,0.39551 0.80859,0.38672 1.13379,0.99316 0.33398,0.59766 0.33398,2.20606 l -0.0264,2.88281 q 0,1.23047 0.11426,1.81934 0.12305,0.58007 0.44824,1.24804 h -2.44336 q -0.0967,-0.24609 -0.2373,-0.72949 -0.0615,-0.21973 -0.0879,-0.29004 -0.63281,0.61524 -1.35352,0.92285 -0.7207,0.30762 -1.53808,0.30762 -1.44141,0 -2.27637,-0.78223 -0.82617,-0.78222 -0.82617,-1.97754 0,-0.79101 0.37793,-1.40625 0.37793,-0.62402 1.05469,-0.94921 0.68554,-0.33399 1.96875,-0.58008 1.73144,-0.3252 2.39941,-0.60645 v -0.24609 q 0,-0.71192 -0.35156,-1.01074 -0.35156,-0.30762 -1.32715,-0.30762 -0.65918,0 -1.02832,0.26367 -0.36914,0.25488 -0.59766,0.90527 z m 3.30469,2.00391 q -0.47461,0.1582 -1.50293,0.37793 -1.02832,0.21973 -1.34473,0.43066 -0.48339,0.34278 -0.48339,0.87012 0,0.51856 0.38671,0.89649 0.38672,0.37793 0.98438,0.37793 0.66797,0 1.27441,-0.43946 0.44825,-0.33398 0.58887,-0.81738 0.0967,-0.31641 0.0967,-1.2041 z"
       id="path1258" />
    <path
       d="m 247.66164,191.27701 h 2.62793 l 2.23242,6.62695 2.17969,-6.62695 h 2.55761 l -3.2959,8.98242 -0.58886,1.62598 q -0.3252,0.81738 -0.62403,1.24804 -0.29004,0.43067 -0.67675,0.69434 -0.37793,0.27246 -0.94043,0.42187 -0.55371,0.14942 -1.25684,0.14942 -0.71191,0 -1.39746,-0.14942 l -0.21973,-1.93359 q 0.58008,0.11426 1.0459,0.11426 0.86133,0 1.27442,-0.50977 0.41308,-0.50097 0.63281,-1.2832 z"
       id="path1260" />
  </g>
  <!-- Arrows connecting each node to every other node -->
  <!-- From "2" to others -->
  <path
     d="m 222.93712,84.305467 58.07943,38.989593"
     class="arrow"
     id="path428"
     style="marker-start:url(#marker4060);fill:none;fill-opacity:1;stroke:#5013ab;stroke-opacity:0.7764706" />
  <!-- 2 to 4 -->
  <path
     d="m 199.7493,98.60842 -0.78585,79.05609"
     class="arrow"
     id="path430"
     style="marker-start:url(#marker4060)" />
  <!-- 2 to Motorway -->
  <path
     d="M 174.87116,80.487749 116.16434,120.32976"
     class="arrow"
     id="path432"
     style="marker-start:url(#marker4060)" />
  <!-- 2 to Who -->
  <path
     d="m 180.06343,88.544819 -79.914,156.998771"
     class="arrow"
     id="path434"
     style="marker-start:url(#marker4060)" />
  <!-- 2 to 10 -->
  <path
     d="M 213.56887,93.727705 294.41498,246.91767"
     class="arrow"
     id="path436"
     style="marker-start:url(#marker4060)" />
  <!-- 2 to 6 -->
  <!-- 2 to 8 -->
  <!-- From "4" to others -->
  <path
     d="m 277.67946,141.54172 -58.08658,38.59972"
     class="arrow"
     id="path440"
     style="marker-start:url(#marker4060)" />
  <!-- 4 to Motorway -->
  <path
     d="M 275.48354,131.8016 H 119.01546"
     class="arrow"
     id="path442"
     style="marker-start:url(#marker4060)" />
  <!-- 4 to Who -->
  <!-- 4 to 10 -->
  <path
     d="m 302.03429,158.35235 0.26195,88.53253"
     class="arrow"
     id="path446"
     style="marker-start:url(#marker4060)" />
  <!-- 4 to 6 -->
  <path
     d="M 287.16192,154.0872 214.21748,309.6038"
     class="arrow"
     id="path448"
     style="marker-start:url(#marker4060)" />
  <!-- 4 to 8 -->
  <!-- From "Who" to others -->
  <path
     d="m 118.66375,148.68632 41.76567,41.31301"
     class="arrow"
     id="path450"
     style="marker-start:url(#marker4060)" />
  <!-- Who to Motorway -->
  <path
     d="M 97.000276,157.8883 95.95247,245.47089"
     class="arrow"
     id="path452"
     style="marker-start:url(#marker4060)" />
  <!-- Who to 10 -->
  <!-- Who to 6 -->
  <path
     d="M 110.48144,154.35104 186.43645,309.2104"
     class="arrow"
     id="path456"
     style="marker-start:url(#marker4060)" />
  <!-- Who to 8 -->
  <!-- From "Motorway" to others -->
  <path
     d="m 155.46303,209.83821 -49.71792,37.09314"
     class="arrow"
     id="path458"
     style="marker-start:url(#marker4060)" />
  <!-- Motorway to 10 -->
  <path
     d="m 238.34455,216.23739 47.66832,36.33701"
     class="arrow"
     id="path460"
     style="marker-start:url(#marker4060)" />
  <!-- Motorway to 6 -->
  <path
     d="m 199.14864,226.68082 v 79.08955"
     class="arrow"
     id="path462"
     style="marker-start:url(#marker4060)" />
  <!-- Motorway to 8 -->
  <!-- From "10" to others -->
  <path
     d="M 114.75312,259.67191 H 280.90677"
     class="arrow"
     id="path464" />
  <!-- 10 to 6 -->
  <path
     d="m 120.02197,281.85129 61.48521,34.59865"
     class="arrow"
     id="path466"
     style="marker-start:url(#RoundedArrow)" />
  <path
     d="m 122.68804,336.61413 25.37832,-38.91274"
     class="arrow"
     id="path466-3"
     style="opacity:0.7;fill:none;stroke:#5514b4;stroke-width:0.811652;marker-start:url(#RoundedArrow-9);marker-end:url(#arrowhead-9)" />
  <!-- 10 to 8 -->
  <!-- From "6" to others -->
  <path
     d="m 280.74036,283.22614 -60.98444,33.34487"
     class="arrow"
     id="path468"
     style="marker-start:url(#marker4060)" />
  <!-- 6 to 8 -->
  <!-- Question mark circles for unknown connections -->
  <!-- For "2" -->
  <path
     id="circle470"
     class="question-circle"
     style="fill:#ffffff;stroke:#5514b4;stroke-width:1.5;stroke-dasharray:3, 2"
     d="m 163.67109,33.124081 a 12.78703,12.78703 0 0 1 -12.78703,12.78703 12.78703,12.78703 0 0 1 -12.78703,-12.78703 12.78703,12.78703 0 0 1 12.78703,-12.787031 12.78703,12.78703 0 0 1 12.78703,12.787031 z" />
  <g
     aria-label="?"
     id="text472"
     style="font-weight:bold;font-size:16px;text-anchor:middle;fill:#5514b4;stroke-width:0.852469"
     class="question-mark">
    <path
       d="m 151.86453,34.4333 h -1.99219 q -0.008,-0.429687 -0.008,-0.523437 0,-0.96875 0.32031,-1.59375 0.32032,-0.625 1.28125,-1.40625 0.96094,-0.78125 1.14844,-1.023438 0.28906,-0.382812 0.28906,-0.84375 0,-0.640625 -0.51562,-1.09375 -0.50781,-0.460937 -1.375,-0.460937 -0.83594,0 -1.39844,0.476562 -0.5625,0.476563 -0.77344,1.453125 l -2.01562,-0.25 q 0.0859,-1.398437 1.1875,-2.375 1.10937,-0.976562 2.90625,-0.976562 1.89062,0 3.00781,0.992187 1.11719,0.984375 1.11719,2.296875 0,0.726563 -0.41406,1.375 -0.40625,0.648438 -1.75,1.765625 -0.69532,0.578125 -0.86719,0.929688 -0.16406,0.351562 -0.14844,1.257812 z m -1.99219,2.953125 v -2.195312 h 2.19532 v 2.195312 z"
       id="path26258" />
  </g>
  <path
     d="m 164.05444,45.586316 16.7278,14.082069"
     class="unknown-arrow"
     id="path474"
     style="marker-start:url(#marker4060)" />
  <!-- 2 to unknown 1 -->
  <path
     id="circle476"
     class="question-circle"
     style="fill:#ffffff;stroke:#5514b4;stroke-width:1.5;stroke-dasharray:3, 2"
     d="m 268.16371,47.351849 a 12.78703,12.78703 0 0 1 -12.78703,12.78703 12.78703,12.78703 0 0 1 -12.78703,-12.78703 12.78703,12.78703 0 0 1 12.78703,-12.787031 12.78703,12.78703 0 0 1 12.78703,12.787031 z" />
  <g
     aria-label="Unlimited"
     id="text478"
     style="font-weight:bold;font-size:3.4058px;text-anchor:middle;fill:#5514b4;stroke-width:0.544376"
     class="question-mark">
    <path
       d="m 247.50084,46.2754 h 0.49224 v 1.320413 q 0,0.314304 0.0183,0.407432 0.0316,0.149669 0.14967,0.241133 0.11973,0.0898 0.32594,0.0898 0.20954,0 0.31597,-0.08481 0.10643,-0.08648 0.12805,-0.2112 0.0216,-0.124724 0.0216,-0.414084 V 46.2754 h 0.49224 v 1.280501 q 0,0.439029 -0.0399,0.620295 -0.0399,0.181265 -0.148,0.305989 -0.10644,0.124725 -0.28604,0.199559 -0.1796,0.07317 -0.46896,0.07317 -0.34923,0 -0.53049,-0.07982 -0.17961,-0.08149 -0.28438,-0.209537 -0.10476,-0.129713 -0.13802,-0.271067 -0.0482,-0.209536 -0.0482,-0.618631 z"
       id="path26238" />
    <path
       d="m 251.56685,48.713341 h -0.4673 v -0.90134 q 0,-0.286034 -0.0299,-0.369183 -0.0299,-0.08481 -0.0981,-0.131376 -0.0665,-0.04656 -0.16131,-0.04656 -0.1214,0 -0.21785,0.06652 -0.0965,0.06652 -0.13304,0.176277 -0.0349,0.109757 -0.0349,0.405769 v 0.799898 h -0.4673 v -1.766094 h 0.43404 v 0.259426 q 0.23116,-0.299338 0.58205,-0.299338 0.15466,0 0.28271,0.05654 0.12805,0.05488 0.1929,0.141354 0.0665,0.08648 0.0915,0.196233 0.0266,0.109757 0.0266,0.314304 z"
       id="path26240" />
    <path
       d="M 252.0408,48.713341 V 46.2754 h 0.4673 v 2.437941 z"
       id="path26242" />
    <path
       d="M 252.98704,46.707777 V 46.2754 h 0.4673 v 0.432377 z m 0,2.005564 v -1.766094 h 0.4673 v 1.766094 z"
       id="path26244" />
    <path
       d="m 253.89836,46.947247 h 0.43071 v 0.241133 q 0.23116,-0.281045 0.55045,-0.281045 0.16962,0 0.29435,0.06985 0.12472,0.06985 0.20455,0.211199 0.1164,-0.141354 0.25111,-0.211199 0.1347,-0.06985 0.28769,-0.06985 0.19457,0 0.32928,0.07982 0.1347,0.07816 0.20122,0.231155 0.0482,0.113083 0.0482,0.365858 v 1.129169 h -0.4673 v -1.009434 q 0,-0.262752 -0.0482,-0.33925 -0.0649,-0.09978 -0.19956,-0.09978 -0.0981,0 -0.18459,0.05987 -0.0865,0.05987 -0.12473,0.176276 -0.0383,0.114746 -0.0383,0.364195 v 0.848124 h -0.4673 v -0.967859 q 0,-0.257764 -0.0249,-0.332598 -0.0249,-0.07484 -0.0782,-0.11142 -0.0515,-0.03659 -0.14135,-0.03659 -0.1081,0 -0.19457,0.0582 -0.0865,0.0582 -0.12473,0.167961 -0.0366,0.109758 -0.0366,0.364195 v 0.858102 h -0.4673 z"
       id="path26246" />
    <path
       d="M 256.96158,46.707777 V 46.2754 h 0.4673 v 0.432377 z m 0,2.005564 v -1.766094 h 0.4673 v 1.766094 z"
       id="path26248" />
    <path
       d="m 258.7177,46.947247 v 0.37251 h -0.3193 v 0.711759 q 0,0.216188 0.008,0.252774 0.01,0.03492 0.0416,0.0582 0.0333,0.02328 0.0798,0.02328 0.0648,0 0.18791,-0.0449 l 0.0399,0.362531 q -0.16297,0.06985 -0.36918,0.06985 -0.12639,0 -0.22783,-0.04157 -0.10144,-0.04324 -0.14967,-0.109757 -0.0466,-0.06818 -0.0648,-0.182929 -0.015,-0.08149 -0.015,-0.329272 v -0.769963 h -0.21453 v -0.37251 h 0.21453 v -0.35089 l 0.46896,-0.27273 v 0.62362 z"
       id="path26250" />
    <path
       d="m 260.06472,48.151251 0.46563,0.07816 q -0.0898,0.2561 -0.28437,0.390802 -0.1929,0.133039 -0.48393,0.133039 -0.46065,0 -0.68182,-0.301 -0.17462,-0.241134 -0.17462,-0.608654 0,-0.439029 0.2295,-0.686814 0.22949,-0.249449 0.58038,-0.249449 0.39413,0 0.62196,0.26109 0.22783,0.259426 0.21785,0.796571 h -1.17075 q 0.005,0.207874 0.11309,0.324283 0.10809,0.114746 0.2694,0.114746 0.10976,0 0.18459,-0.05987 0.0748,-0.05987 0.11309,-0.192906 z m 0.0266,-0.472289 q -0.005,-0.202885 -0.10476,-0.307653 -0.0998,-0.106431 -0.2428,-0.106431 -0.153,0 -0.25277,0.11142 -0.0998,0.11142 -0.0981,0.302664 z"
       id="path26252" />
    <path
       d="m 262.55587,48.713341 h -0.43404 v -0.259426 q -0.10809,0.151332 -0.2561,0.226166 -0.14634,0.07317 -0.29601,0.07317 -0.30433,0 -0.52218,-0.244459 -0.21619,-0.246122 -0.21619,-0.685151 0,-0.449007 0.2112,-0.681825 0.2112,-0.234482 0.53382,-0.234482 0.29602,0 0.5122,0.246123 V 46.2754 h 0.4673 z m -1.24724,-0.921296 q 0,0.282708 0.0782,0.409095 0.11309,0.182929 0.31597,0.182929 0.16131,0 0.27439,-0.136365 0.11309,-0.138028 0.11309,-0.410758 0,-0.304327 -0.10976,-0.437366 -0.10976,-0.134702 -0.28105,-0.134702 -0.16629,0 -0.27938,0.133039 -0.11142,0.131376 -0.11142,0.394128 z"
       id="path26254" />
  </g>
  <path
     d="m 224.31289,60.591661 18.2169,-6.619907"
     class="unknown-arrow"
     id="path480"
     style="marker-start:url(#marker4060)" />
  <!-- 2 to unknown 2 -->
  <!-- For "4" -->
  <path
     id="circle482"
     class="question-circle"
     style="fill:#ffffff;stroke:#5514b4;stroke-width:1.5;stroke-dasharray:3, 2"
     d="M 352.64723,91.045609 A 12.78703,12.78703 0 0 1 339.8602,103.83264 12.78703,12.78703 0 0 1 327.07317,91.045609 12.78703,12.78703 0 0 1 339.8602,78.258578 12.78703,12.78703 0 0 1 352.64723,91.045609 Z" />
  <g
     aria-label="?"
     id="text484"
     style="font-weight:bold;font-size:16px;text-anchor:middle;fill:#5514b4;stroke-width:0.852469"
     class="question-mark">
    <path
       d="m 340.84067,92.354828 h -1.99219 q -0.008,-0.429688 -0.008,-0.523438 0,-0.96875 0.32031,-1.59375 0.32031,-0.625 1.28125,-1.40625 0.96094,-0.78125 1.14844,-1.023437 0.28906,-0.382813 0.28906,-0.84375 0,-0.640625 -0.51562,-1.09375 -0.50782,-0.460938 -1.375,-0.460938 -0.83594,0 -1.39844,0.476563 -0.5625,0.476562 -0.77344,1.453125 l -2.01562,-0.25 q 0.0859,-1.398438 1.1875,-2.375 1.10937,-0.976563 2.90625,-0.976563 1.89062,0 3.00781,0.992188 1.11719,0.984375 1.11719,2.296875 0,0.726562 -0.41407,1.375 -0.40625,0.648437 -1.75,1.765625 -0.69531,0.578125 -0.86718,0.929687 -0.16407,0.351563 -0.14844,1.257813 z m -1.99219,2.953125 V 93.11264 h 2.19531 v 2.195313 z"
       id="path26234" />
  </g>
  <path
     d="m 317.51195,109.78641 11.59699,-9.76332"
     class="unknown-arrow"
     id="path486"
     style="marker-start:url(#marker4060)" />
  <!-- 4 to unknown 1 -->
  <path
     id="circle488"
     class="question-circle"
     style="fill:#ffffff;stroke:#5514b4;stroke-width:1.5;stroke-dasharray:3, 2"
     d="m 362.60136,165.87782 a 12.78703,12.78703 0 0 1 -12.78703,12.78703 12.78703,12.78703 0 0 1 -12.78703,-12.78703 12.78703,12.78703 0 0 1 12.78703,-12.78703 12.78703,12.78703 0 0 1 12.78703,12.78703 z" />
  <g
     aria-label="?"
     id="text490"
     style="font-weight:bold;font-size:16px;text-anchor:middle;fill:#5514b4;stroke-width:0.852469"
     class="question-mark">
    <path
       d="m 350.7948,167.18704 h -1.99219 q -0.008,-0.42969 -0.008,-0.52344 0,-0.96875 0.32031,-1.59375 0.32031,-0.625 1.28125,-1.40625 0.96094,-0.78125 1.14844,-1.02343 0.28906,-0.38282 0.28906,-0.84375 0,-0.64063 -0.51562,-1.09375 -0.50782,-0.46094 -1.375,-0.46094 -0.83594,0 -1.39844,0.47656 -0.5625,0.47656 -0.77344,1.45313 l -2.01562,-0.25 q 0.0859,-1.39844 1.1875,-2.375 1.10937,-0.97657 2.90625,-0.97657 1.89062,0 3.00781,0.99219 1.11719,0.98438 1.11719,2.29688 0,0.72656 -0.41407,1.375 -0.40625,0.64843 -1.75,1.76562 -0.69531,0.57813 -0.86718,0.92969 -0.16407,0.35156 -0.14844,1.25781 z m -1.99219,2.95313 v -2.19532 h 2.19531 v 2.19532 z"
       id="path26230" />
  </g>
  <path
     d="m 323.53683,148.31581 12.12089,9.50137"
     class="unknown-arrow"
     id="path492"
     style="marker-start:url(#marker4060)" />
  <!-- 4 to unknown 2 -->
  <!-- For "6" -->
  <path
     id="circle494"
     class="question-circle"
     style="fill:#ffffff;stroke:#5514b4;stroke-width:1.5;stroke-dasharray:3, 2"
     d="m 364.43504,230.58401 a 12.78703,12.78703 0 0 1 -12.78703,12.78704 12.78703,12.78703 0 0 1 -12.78703,-12.78704 12.78703,12.78703 0 0 1 12.78703,-12.78703 12.78703,12.78703 0 0 1 12.78703,12.78703 z" />
  <g
     aria-label="?"
     id="text496"
     style="font-weight:bold;font-size:16px;text-anchor:middle;fill:#5514b4;stroke-width:0.852469"
     class="question-mark">
    <path
       d="m 352.62848,231.89323 h -1.99219 q -0.008,-0.42968 -0.008,-0.52343 0,-0.96875 0.32031,-1.59375 0.32031,-0.625 1.28125,-1.40625 0.96094,-0.78125 1.14844,-1.02344 0.28906,-0.38281 0.28906,-0.84375 0,-0.64063 -0.51562,-1.09375 -0.50782,-0.46094 -1.375,-0.46094 -0.83594,0 -1.39844,0.47656 -0.5625,0.47657 -0.77344,1.45313 l -2.01562,-0.25 q 0.0859,-1.39844 1.1875,-2.375 1.10937,-0.97656 2.90625,-0.97656 1.89062,0 3.00781,0.99218 1.11719,0.98438 1.11719,2.29688 0,0.72656 -0.41407,1.375 -0.40625,0.64844 -1.75,1.76562 -0.69531,0.57813 -0.86718,0.92969 -0.16407,0.35156 -0.14844,1.25781 z m -1.99219,2.95313 v -2.19531 h 2.19531 v 2.19531 z"
       id="path26226" />
  </g>
  <path
     d="m 323.14391,251.42044 15.78821,-12.38285"
     class="unknown-arrow"
     id="path498"
     style="marker-start:url(#marker4060)" />
  <!-- 6 to unknown 1 -->
  <path
     id="circle500"
     class="question-circle"
     style="fill:#ffffff;stroke:#5514b4;stroke-width:1.5;stroke-dasharray:3, 2"
     d="m 366.79261,304.76135 a 12.78703,12.78703 0 0 1 -12.78703,12.78703 12.78703,12.78703 0 0 1 -12.78703,-12.78703 12.78703,12.78703 0 0 1 12.78703,-12.78703 12.78703,12.78703 0 0 1 12.78703,12.78703 z" />
  <g
     aria-label="?"
     id="text502"
     style="font-weight:bold;font-size:16px;text-anchor:middle;fill:#5514b4;stroke-width:0.852469"
     class="question-mark">
    <path
       d="m 354.98605,306.07056 h -1.99218 q -0.008,-0.42969 -0.008,-0.52344 0,-0.96875 0.32032,-1.59375 0.32031,-0.625 1.28125,-1.40625 0.96093,-0.78125 1.14843,-1.02344 0.28907,-0.38281 0.28907,-0.84375 0,-0.64062 -0.51563,-1.09375 -0.50781,-0.46094 -1.375,-0.46094 -0.83594,0 -1.39844,0.47657 -0.5625,0.47656 -0.77343,1.45312 l -2.01563,-0.25 q 0.0859,-1.39844 1.1875,-2.375 1.10938,-0.97656 2.90625,-0.97656 1.89063,0 3.00781,0.99219 1.11719,0.98437 1.11719,2.29687 0,0.72656 -0.41406,1.375 -0.40625,0.64844 -1.75,1.76563 -0.69531,0.57812 -0.86719,0.92968 -0.16406,0.35157 -0.14844,1.25782 z m -1.99218,2.95312 v -2.19531 h 2.19531 v 2.19531 z"
       id="path26222" />
  </g>
  <path
     d="m 324.58465,282.22226 20.50333,13.6926"
     class="unknown-arrow"
     id="path504"
     style="marker-start:url(#marker4060)" />
  <!-- 6 to unknown 2 -->
  <!-- For "8" -->
  <path
     id="circle506"
     class="question-circle"
     style="fill:#ffffff;stroke:#5514b4;stroke-width:1.5;stroke-dasharray:3, 2"
     d="m 168.33236,356.9649 a 12.78703,12.78703 0 0 1 -12.78703,12.78704 12.78703,12.78703 0 0 1 -12.78703,-12.78704 12.78703,12.78703 0 0 1 12.78703,-12.78703 12.78703,12.78703 0 0 1 12.78703,12.78703 z" />
  <g
     aria-label="?"
     id="text508"
     style="font-weight:bold;font-size:16px;text-anchor:middle;fill:#5514b4;stroke-width:0.852469"
     class="question-mark">
    <path
       d="m 156.5258,358.27411 h -1.99218 q -0.008,-0.42969 -0.008,-0.52344 0,-0.96875 0.32032,-1.59375 0.32031,-0.625 1.28125,-1.40625 0.96093,-0.78125 1.14843,-1.02344 0.28907,-0.38281 0.28907,-0.84375 0,-0.64062 -0.51563,-1.09375 -0.50781,-0.46093 -1.375,-0.46093 -0.83594,0 -1.39844,0.47656 -0.5625,0.47656 -0.77343,1.45312 l -2.01563,-0.25 q 0.0859,-1.39843 1.1875,-2.375 1.10938,-0.97656 2.90625,-0.97656 1.89063,0 3.00781,0.99219 1.11719,0.98437 1.11719,2.29687 0,0.72657 -0.41406,1.375 -0.40625,0.64844 -1.75,1.76563 -0.69531,0.57812 -0.86719,0.92969 -0.16406,0.35156 -0.14844,1.25781 z m -1.99218,2.95312 v -2.19531 h 2.19531 v 2.19531 z"
       id="path26218" />
  </g>
  <path
     d="m 178.68643,343.80551 -8.96681,5.99599"
     class="unknown-arrow"
     id="path510"
     style="marker-start:url(#marker4060)" />
  <!-- 8 to unknown 1 -->
  <path
     id="circle512"
     class="question-circle"
     style="fill:#ffffff;stroke:#5514b4;stroke-width:1.5;stroke-dasharray:3, 2"
     d="m 255.95982,357.51425 a 12.78703,12.78703 0 0 1 -12.78703,12.78703 12.78703,12.78703 0 0 1 -12.78703,-12.78703 12.78703,12.78703 0 0 1 12.78703,-12.78703 12.78703,12.78703 0 0 1 12.78703,12.78703 z" />
  <g
     aria-label="?"
     id="text514"
     style="font-weight:bold;font-size:16px;text-anchor:middle;fill:#5514b4;stroke-width:0.852469"
     class="question-mark">
    <path
       d="m 244.15326,358.82349 h -1.99219 q -0.008,-0.42969 -0.008,-0.52344 0,-0.96875 0.32031,-1.59375 0.32031,-0.625 1.28125,-1.40625 0.96094,-0.78125 1.14844,-1.02344 0.28906,-0.38281 0.28906,-0.84375 0,-0.64062 -0.51562,-1.09375 -0.50782,-0.46094 -1.375,-0.46094 -0.83594,0 -1.39844,0.47657 -0.5625,0.47656 -0.77344,1.45312 l -2.01562,-0.25 q 0.0859,-1.39844 1.1875,-2.375 1.10937,-0.97656 2.90625,-0.97656 1.89062,0 3.00781,0.99219 1.11719,0.98437 1.11719,2.29687 0,0.72656 -0.41407,1.375 -0.40625,0.64844 -1.75,1.76563 -0.69531,0.57812 -0.86718,0.92968 -0.16407,0.35157 -0.14844,1.25782 z m -1.99219,2.95312 v -2.19531 h 2.19531 v 2.19531 z"
       id="path26214" />
  </g>
  <path
     d="m 220.19613,343.80319 11.14421,6.88186"
     class="unknown-arrow"
     id="path516"
     style="marker-start:url(#marker4060)" />
  <!-- 8 to unknown 2 -->
  <!-- For "10" -->
  <path
     id="circle518"
     class="question-circle"
     style="fill:#ffffff;stroke:#5514b4;stroke-width:1.5;stroke-dasharray:3, 2"
     d="m 68.702195,233.05075 a 12.78703,12.78703 0 0 1 -12.78703,12.78703 12.78703,12.78703 0 0 1 -12.78703,-12.78703 12.78703,12.78703 0 0 1 12.78703,-12.78703 12.78703,12.78703 0 0 1 12.78703,12.78703 z" />
  <g
     aria-label="?"
     id="text520"
     style="font-weight:bold;font-size:16px;text-anchor:middle;fill:#5514b4;stroke-width:0.852469"
     class="question-mark">
    <path
       d="m 56.895634,234.35997 h -1.992188 q -0.0078,-0.42969 -0.0078,-0.52344 0,-0.96875 0.320312,-1.59375 0.320313,-0.625 1.28125,-1.40625 0.960938,-0.78125 1.148438,-1.02343 0.289062,-0.38282 0.289062,-0.84375 0,-0.64063 -0.515625,-1.09375 -0.507812,-0.46094 -1.375,-0.46094 -0.835937,0 -1.398437,0.47656 -0.5625,0.47656 -0.773438,1.45313 l -2.015625,-0.25 q 0.08594,-1.39844 1.1875,-2.375 1.109375,-0.97657 2.90625,-0.97657 1.890625,0 3.007813,0.99219 1.117187,0.98438 1.117187,2.29688 0,0.72656 -0.414062,1.375 -0.40625,0.64843 -1.75,1.76562 -0.695313,0.57813 -0.867188,0.92969 -0.164062,0.35156 -0.148437,1.25781 z m -1.992188,2.95313 v -2.19532 h 2.195313 v 2.19532 z"
       id="path26210" />
  </g>
  <path
     d="M 76.38097,252.43486 65.569839,242.67153"
     class="unknown-arrow"
     id="path522"
     style="marker-start:url(#marker4060)" />
  <!-- 10 to unknown 1 -->
  <path
     id="circle524"
     class="question-circle"
     style="fill:#ffffff;stroke:#5514b4;stroke-width:1.5;stroke-dasharray:3, 2"
     d="M 85.285062,313.77103 A 12.78703,12.78703 0 0 1 72.498032,326.55806 12.78703,12.78703 0 0 1 59.711001,313.77103 12.78703,12.78703 0 0 1 72.498032,300.984 12.78703,12.78703 0 0 1 85.285062,313.77103 Z" />
  <g
     aria-label=";"
     id="text526"
     style="font-weight:bold;font-size:16px;text-anchor:middle;fill:#5514b4;stroke-width:0.852469"
     class="question-mark">
    <path
       d="m 71.341782,311.93179 v -2.19531 h 2.195312 v 2.19531 z m 0,3.90625 h 2.195312 v 1.57032 q 0,0.95312 -0.164062,1.5 -0.164063,0.55468 -0.625,0.99218 -0.453125,0.4375 -1.15625,0.6875 l -0.429688,-0.90625 q 0.664063,-0.21875 0.945313,-0.60937 0.28125,-0.39063 0.296875,-1.03906 h -1.0625 z"
       id="path26206" />
  </g>
  <path
     d="m 84.358926,293.57701 -4.262343,4.26234"
     class="unknown-arrow"
     id="path528"
     style="marker-start:url(#marker3458)" />
  <!-- 10 to unknown 2 -->
  <!-- For "Who" -->
  <path
     id="circle530"
     class="question-circle"
     style="fill:#ffffff;stroke:#5514b4;stroke-width:1.5;stroke-dasharray:3, 2"
     d="M 71.022531,96.970367 A 12.78703,12.78703 0 0 1 58.2355,109.7574 12.78703,12.78703 0 0 1 45.44847,96.970367 12.78703,12.78703 0 0 1 58.2355,84.183337 12.78703,12.78703 0 0 1 71.022531,96.970367 Z" />
  <g
     aria-label="Dr"
     id="text532"
     style="font-weight:bold;font-size:16px;text-anchor:middle;fill:#5514b4;stroke-width:0.852469"
     class="question-mark">
    <path
       d="m 50.501125,90.827393 h 4.226563 q 1.429687,0 2.179687,0.21875 1.007813,0.296875 1.726563,1.054687 0.71875,0.757813 1.09375,1.859375 0.375,1.09375 0.375,2.703125 0,1.414063 -0.351563,2.4375 -0.429687,1.25 -1.226562,2.02344 -0.601563,0.58594 -1.625,0.91406 -0.765625,0.24219 -2.046875,0.24219 h -4.351563 z m 2.3125,1.9375 v 7.585937 h 1.726563 q 0.96875,0 1.398437,-0.10937 0.5625,-0.14063 0.929688,-0.476567 0.375,-0.335938 0.609375,-1.101563 0.234375,-0.773437 0.234375,-2.101562 0,-1.328125 -0.234375,-2.039063 -0.234375,-0.710937 -0.65625,-1.109375 -0.421875,-0.398437 -1.070313,-0.539062 -0.484375,-0.109375 -1.898437,-0.109375 z"
       id="path26200" />
    <path
       d="M 64.149563,102.28052 H 61.95425 v -8.296877 h 2.039063 v 1.179687 q 0.523437,-0.835937 0.9375,-1.101562 0.421875,-0.265625 0.953125,-0.265625 0.75,0 1.445312,0.414062 l -0.679687,1.914063 q -0.554688,-0.359375 -1.03125,-0.359375 -0.460938,0 -0.78125,0.257812 -0.320313,0.25 -0.507813,0.914063 -0.179687,0.664062 -0.179687,2.78125 z"
       id="path26202" />
  </g>
  <path
     d="m 76.208907,115.12689 -9.239422,-8.71552"
     class="unknown-arrow"
     id="path534"
     style="marker-start:url(#marker4060)" />
  <!-- Who to unknown 1 -->
  <path
     id="circle536"
     class="question-circle"
     style="fill:#ffffff;stroke:#5514b4;stroke-width:1.5;stroke-dasharray:3, 2"
     d="m 73.245263,164.4101 a 12.78703,12.78703 0 0 1 -12.78703,12.78703 12.78703,12.78703 0 0 1 -12.78703,-12.78703 12.78703,12.78703 0 0 1 12.78703,-12.78704 12.78703,12.78703 0 0 1 12.78703,12.78704 z" />
  <g
     aria-label="?"
     id="text538"
     style="font-weight:bold;font-size:16px;text-anchor:middle;fill:#5514b4;stroke-width:0.852469"
     class="question-mark">
    <path
       d="m 61.438702,165.71931 h -1.992188 q -0.0078,-0.42968 -0.0078,-0.52343 0,-0.96875 0.320312,-1.59375 0.320313,-0.625 1.28125,-1.40625 0.960938,-0.78125 1.148438,-1.02344 0.289062,-0.38281 0.289062,-0.84375 0,-0.64063 -0.515625,-1.09375 -0.507812,-0.46094 -1.375,-0.46094 -0.835937,0 -1.398437,0.47656 -0.5625,0.47657 -0.773438,1.45313 l -2.015625,-0.25 q 0.08594,-1.39844 1.1875,-2.375 1.109375,-0.97656 2.90625,-0.97656 1.890625,0 3.007813,0.99218 1.117187,0.98438 1.117187,2.29688 0,0.72656 -0.414062,1.375 -0.40625,0.64844 -1.75,1.76562 -0.695313,0.57813 -0.867188,0.92969 -0.164062,0.35156 -0.148437,1.25781 z m -1.992188,2.95313 v -2.19531 h 2.195313 v 2.19531 z"
       id="path26196" />
  </g>
  <path
     d="m 79.172551,152.18087 -6.881858,5.31015"
     class="unknown-arrow"
     id="path540"
     style="marker-start:url(#marker4060)" />
  <!-- Who to unknown 2 -->
  <!-- For "Motorway" -->
  <path
     id="circle542"
     class="question-circle"
     style="fill:#ffffff;stroke:#5514b4;stroke-width:1.5;stroke-dasharray:3, 2"
     d="m 182.98794,148.50308 a 12.78703,12.78703 0 0 1 -12.78703,12.78703 12.78703,12.78703 0 0 1 -12.78703,-12.78703 12.78703,12.78703 0 0 1 12.78703,-12.78703 12.78703,12.78703 0 0 1 12.78703,12.78703 z" />
  <g
     aria-label="?"
     id="text544"
     style="font-weight:bold;font-size:16px;text-anchor:middle;fill:#5514b4;stroke-width:0.852469"
     class="question-mark">
    <path
       d="m 171.18138,149.8123 h -1.99219 q -0.008,-0.42969 -0.008,-0.52344 0,-0.96875 0.32031,-1.59375 0.32032,-0.625 1.28125,-1.40625 0.96094,-0.78125 1.14844,-1.02343 0.28906,-0.38282 0.28906,-0.84375 0,-0.64063 -0.51562,-1.09375 -0.50781,-0.46094 -1.375,-0.46094 -0.83594,0 -1.39844,0.47656 -0.5625,0.47656 -0.77344,1.45313 l -2.01562,-0.25 q 0.0859,-1.39844 1.1875,-2.375 1.10937,-0.97657 2.90625,-0.97657 1.89062,0 3.00781,0.99219 1.11719,0.98438 1.11719,2.29688 0,0.72656 -0.41406,1.375 -0.40625,0.64843 -1.75,1.76562 -0.69532,0.57813 -0.86719,0.92969 -0.16406,0.35156 -0.14844,1.25781 z m -1.99219,2.95313 v -2.19532 h 2.19532 v 2.19532 z"
       id="path26192" />
  </g>
  <path
     d="m 181.50984,174.65283 -4.45406,-13.92978"
     class="unknown-arrow"
     id="path546"
     style="marker-start:url(#marker4060)" />
  <!-- Motorway to unknown 1 -->
  <path
     id="circle548"
     class="question-circle"
     style="fill:#ffffff;stroke:#5514b4;stroke-width:1.5;stroke-dasharray:3, 2"
     d="m 265.11392,276.59738 a 12.78703,12.78703 0 0 1 -12.78703,12.78703 12.78703,12.78703 0 0 1 -12.78703,-12.78703 12.78703,12.78703 0 0 1 12.78703,-12.78703 12.78703,12.78703 0 0 1 12.78703,12.78703 z" />
  <g
     aria-label="?"
     id="text550"
     style="font-weight:bold;font-size:16px;text-anchor:middle;fill:#5514b4;stroke-width:0.852469"
     class="question-mark">
    <path
       d="m 253.30736,277.90662 h -1.99219 q -0.008,-0.42969 -0.008,-0.52344 0,-0.96875 0.32031,-1.59375 0.32031,-0.625 1.28125,-1.40625 0.96094,-0.78125 1.14844,-1.02344 0.28906,-0.38281 0.28906,-0.84375 0,-0.64062 -0.51562,-1.09375 -0.50782,-0.46094 -1.375,-0.46094 -0.83594,0 -1.39844,0.47657 -0.5625,0.47656 -0.77344,1.45312 l -2.01562,-0.25 q 0.0859,-1.39844 1.1875,-2.375 1.10937,-0.97656 2.90625,-0.97656 1.89062,0 3.00781,0.99219 1.11719,0.98437 1.11719,2.29687 0,0.72656 -0.41407,1.375 -0.40625,0.64844 -1.75,1.76563 -0.69531,0.57812 -0.86718,0.92968 -0.16407,0.35157 -0.14844,1.25782 z m -1.99219,2.95312 v -2.19531 h 2.19531 v 2.19531 z"
       id="path26188" />
  </g>
  <path
     d="m 217.45259,224.48568 24.92352,43.52994"
     class="unknown-arrow"
     id="path552"
     style="marker-start:url(#marker4060)" />
  <!-- Motorway to unknown 2 -->
  <g
     id="text1469"
     style="font-weight:bold;font-size:10.6667px;-inkscape-font-specification:'Arial, sans-serif Bold';text-align:center;direction:rtl;text-orientation:upright;white-space:pre;shape-inside:url(#rect1471);display:inline;opacity:0.192211;fill:none;stroke:#000000;stroke-width:0.377953;stroke-linecap:square;stroke-linejoin:bevel" />
  <path
     id="circle530-7"
     style="fill:#ffffff;stroke:#5514b4;stroke-width:1.2787;stroke-dasharray:2.55741, 1.70494"
     class="question-circle"
     d="M 132.2241,82.148399 A 12.78703,12.78703 0 0 1 119.43707,94.93543 12.78703,12.78703 0 0 1 106.65004,82.148399 12.78703,12.78703 0 0 1 119.43707,69.361369 12.78703,12.78703 0 0 1 132.2241,82.148399 Z" />
  <g
     aria-label="No"
     id="text532-8"
     style="font-weight:bold;font-size:16px;text-anchor:middle;fill:#5514b4;stroke-width:0.852469"
     class="question-mark">
    <path
       d="M 109.96051,87.458549 V 76.005424 h 2.25 l 4.6875,7.648438 v -7.648438 h 2.14844 v 11.453125 h -2.32031 l -4.61719,-7.46875 v 7.46875 z"
       id="path26181" />
    <path
       d="m 120.96832,83.192924 q 0,-1.09375 0.53907,-2.117187 0.53906,-1.023438 1.52343,-1.5625 0.99219,-0.539063 2.21094,-0.539063 1.88281,0 3.08594,1.226563 1.20312,1.21875 1.20312,3.085937 0,1.882813 -1.21875,3.125 -1.21093,1.234375 -3.05468,1.234375 -1.14063,0 -2.17969,-0.515625 -1.03125,-0.515625 -1.57031,-1.507812 -0.53907,-1 -0.53907,-2.429688 z m 2.25,0.117188 q 0,1.234375 0.58594,1.890625 0.58594,0.65625 1.44531,0.65625 0.85938,0 1.4375,-0.65625 0.58594,-0.65625 0.58594,-1.90625 0,-1.21875 -0.58594,-1.875 -0.57812,-0.65625 -1.4375,-0.65625 -0.85937,0 -1.44531,0.65625 -0.58594,0.65625 -0.58594,1.890625 z"
       id="path26183" />
  </g>
  <path
     d="M 100.82505,86.659752 71.501307,92.548346"
     class="unknown-arrow"
     id="path534-7"
     style="opacity:0.7;fill:none;stroke:#5514b4;stroke-width:0.852469;stroke-dasharray:2.55741, 1.70494;marker-start:url(#marker4060);marker-end:url(#arrowhead-1)" />
  <path
     d="M 110.6022,99.568259 104.35827,110.1477"
     class="unknown-arrow"
     id="path534-1"
     style="opacity:0.7;fill:none;stroke:#5514b4;stroke-width:0.852469;stroke-dasharray:2.55741, 1.70494;marker-start:url(#marker4060);marker-end:url(#arrowhead-11)" />
  <path
     d="M 135.5681,79.632682 177.69654,73.62856"
     class="unknown-arrow"
     id="path534-1-6"
     style="opacity:0.7;fill:none;stroke:#5514b4;stroke-width:0.852469;stroke-dasharray:2.55741, 1.70494;marker-start:url(#marker4060);marker-end:url(#arrowhead-11-8)" />
</svg>
